HIERARCHY
ROOT Hips
{
	OFFSET -0.179506 -22.333345 2.821913
	CHANNELS 6 Xposition Yposition Zposition Zrotation Yrotation Xrotation 
	JOINT LeftUpLeg
	{
		OFFSET 6.951974 -9.140623 -0.681533
		CHANNELS 3 Zrotation Yrotation Xrotation
		JOINT LeftLeg
		{
			OFFSET 3.427654 -37.519855 -0.449580
			CHANNELS 3 Zrotation Yrotation Xrotation
			JOINT LeftFoot
			{
				OFFSET -1.359570 -39.796059 -4.369333
				CHANNELS 3 Zrotation Yrotation Xrotation
				JOINT LeftToe
				{
					OFFSET 2.635814 -5.579078 11.928840
					CHANNELS 3 Zrotation Yrotation Xrotation
					End Site
					{
						OFFSET 0.000000 0.000000 0.000000
					}
				}
			}
		}
	}
	JOINT RightUpLeg
	{
		OFFSET -6.767048 -9.052170 -0.431982
		CHANNELS 3 Zrotation Yrotation Xrotation
		JOINT RightLeg
		{
			OFFSET -3.829005 -38.256897 -0.885003
			CHANNELS 3 Zrotation Yrotation Xrotation
			JOINT RightFoot
			{
				OFFSET 1.577377 -39.841461 -4.231180
				CHANNELS 3 Zrotation Yrotation Xrotation
				JOINT RightToe
				{
					OFFSET -2.537174 -4.814398 12.334795
					CHANNELS 3 Zrotation Yrotation Xrotation
					End Site
					{
						OFFSET 0.000000 0.000000 0.000000
					}
				}
			}
		}
	}
	JOINT Spine
	{
		OFFSET -0.253288 10.896323 -2.669631
		CHANNELS 3 Zrotation Yrotation Xrotation
		JOINT Spine1
		{
			OFFSET 0.548704 13.518043 0.109247
			CHANNELS 3 Zrotation Yrotation Xrotation
			JOINT Spine2
			{
				OFFSET 0.145701 5.292222 2.542457
				CHANNELS 3 Zrotation Yrotation Xrotation
				JOINT Neck
				{
					OFFSET -0.277840 21.387037 -4.285703
					CHANNELS 3 Zrotation Yrotation Xrotation
					JOINT Head
					{
						OFFSET 0.515184 6.496960 5.134897
						CHANNELS 3 Zrotation Yrotation Xrotation
						End Site
						{
							OFFSET 0.000000 0.000000 0.000000
						}
					}
				}
				JOINT LeftShoulder
				{
					OFFSET 7.884473 12.174932 -3.408961
					CHANNELS 3 Zrotation Yrotation Xrotation
					JOINT LeftArm
					{
						OFFSET 9.097692 3.046888 -0.886815
						CHANNELS 3 Zrotation Yrotation Xrotation
						JOINT LeftForeArm
						{
							OFFSET 25.961220 -1.277207 -2.745643
							CHANNELS 3 Zrotation Yrotation Xrotation
							JOINT LeftHand
							{
								OFFSET 24.923361 0.898606 -0.117091
								CHANNELS 3 Zrotation Yrotation Xrotation
								End Site
								{
									OFFSET 0.000000 0.000000 0.000000
								}
							}
						}
					}
				}
				JOINT RightShoulder
				{
					OFFSET -8.175920 11.883285 -3.861528
					CHANNELS 3 Zrotation Yrotation Xrotation
					JOINT RightArm
					{
						OFFSET -9.601238 3.255117 -0.914307
						CHANNELS 3 Zrotation Yrotation Xrotation
						JOINT RightForeArm
						{
							OFFSET -25.374195 -1.332924 -2.140099
							CHANNELS 3 Zrotation Yrotation Xrotation
							JOINT RightHand
							{
								OFFSET -25.529810 0.777228 -0.555919
								CHANNELS 3 Zrotation Yrotation Xrotation
								End Site
								{
									OFFSET 0.000000 0.000000 0.000000
								}
							}
						}
					}
				}
			}
		}
	}
}
MOTION
Frames: 7
Frame Time: 0.033333
-37.999126 -323.266571 92.962517 -177.570704 3.849859 90.487604 -1.753870 0.515379 25.311055 4.845106 -18.490678 -8.587221 -4.360670 11.593579 -15.981132 nan nan nan 4.981414 3.100375 -26.199142 4.758625 -4.867129 0.888198 1.887763 -9.156620 7.460863 nan nan nan -3.382986 -7.165120 4.621515 5.736196 -3.292823 6.078663 2.680388 -4.012964 -1.286835 2.980228 -0.215665 -6.373935 10.917415 -0.662460 -7.846257 -21.596113 -1.869452 -2.414270 -59.757531 -24.665707 17.121499 21.093903 -38.031523 -30.929927 -10.036825 -19.802531 -4.732633 18.597667 -4.298939 -2.385170 58.050523 -5.320134 7.470732 -8.667226 27.796884 -7.807989 15.673143 11.297075 -10.756303 
-37.980858 -322.316742 92.761131 -177.400186 4.081199 90.632835 -1.574759 0.310704 25.686396 4.853488 -18.413896 -8.218180 -4.651653 11.682053 -16.175289 nan nan nan 5.107982 3.424676 -26.704359 4.904050 -5.272983 2.202322 1.715947 -8.959626 8.294889 nan nan nan -2.981670 -7.337693 4.389488 5.850487 -3.307037 6.246713 2.492273 -4.062228 -1.512244 3.058094 -0.068518 -6.572988 10.869098 -0.938158 -7.642727 -21.510971 -1.756473 -2.426877 -60.392943 -24.343546 17.896781 21.509396 -37.659115 -30.911157 -9.965363 -20.146697 -5.705339 18.739135 -4.338682 -2.446857 57.882258 -5.662562 7.670146 -8.801459 27.579392 -8.132743 15.681269 11.496464 -10.984488 
-37.941860 -321.329163 92.581909 -177.258577 4.160582 90.728282 -1.422924 0.255426 26.049183 4.706791 -18.386319 -7.783153 -4.733756 11.765408 -16.116544 nan nan nan 5.189617 3.802812 -27.151726 4.784234 -5.563568 3.552052 1.485053 -8.999381 8.865660 nan nan nan -2.826226 -7.569777 4.079930 5.927355 -3.295939 6.576619 2.425544 -4.049803 -1.725326 3.019661 0.065508 -6.460111 10.732655 -1.079786 -7.831142 -21.519099 -1.689410 -2.432176 -60.781351 -23.927093 18.217630 21.429891 -37.475365 -30.602459 -10.171874 -20.302018 -5.991799 18.670507 -4.324595 -2.505722 58.041954 -5.958461 7.832419 -8.962606 27.177071 -8.257213 15.506555 11.696550 -11.329550 
-37.925140 -320.288391 92.424355 -177.103905 4.261939 90.819422 -1.121257 0.318130 26.372403 4.465158 -18.535639 -7.271838 -4.931030 11.764171 -15.867651 nan nan nan 5.249855 4.042174 -27.570771 4.793495 -5.929359 4.868130 1.172401 -9.204911 9.244039 nan nan nan -2.678526 -7.800507 3.740052 6.021386 -3.258946 6.689884 2.376020 -4.018957 -1.697717 2.988224 0.192690 -6.442217 10.556813 -1.108159 -7.919565 -21.583661 -1.708156 -2.294514 -61.119999 -23.589168 18.314119 21.184915 -37.277450 -30.228663 -10.653183 -19.962408 -5.841267 18.662629 -4.325021 -2.567264 58.167622 -6.168641 7.809465 -9.187133 26.620370 -8.260548 15.412058 11.392840 -11.412097 
-37.892838 -319.208496 92.287590 -177.087104 4.436714 90.846710 -0.647554 0.434442 26.750707 4.091174 -18.604058 -6.744844 -5.268446 11.753418 -15.662972 nan nan nan 5.399775 4.447715 -27.803927 4.671138 -5.745153 5.987935 0.822995 -9.193611 9.434513 nan nan nan -2.552852 -7.962062 3.500219 6.164586 -3.116280 6.555378 2.387666 -3.968960 -1.507344 3.020839 0.219574 -6.561865 10.280155 -1.212965 -7.724298 -21.636062 -1.724894 -2.106934 -61.465580 -23.350047 18.441452 20.756644 -36.855115 -29.750331 -11.710065 -19.603031 -5.922675 18.815640 -4.357964 -2.531941 58.084101 -6.309063 7.739646 -9.526021 26.165818 -8.315555 15.978162 10.914758 -11.411990 
-37.971638 -318.151947 92.226913 -176.884510 4.475169 90.781781 -0.520341 0.398938 26.926272 3.824612 -18.507265 -5.721772 -5.630125 11.782104 -15.493608 nan nan nan 5.321741 4.442431 -27.919354 4.813266 -6.008311 7.115505 0.741010 -9.110921 9.821521 nan nan nan -2.282871 -8.061172 3.433239 6.229759 -3.168378 6.656364 2.335859 -4.025384 -1.741830 2.848725 0.196810 -6.325031 10.011547 -1.178933 -7.821508 -21.880724 -1.636550 -1.928832 -61.803024 -22.977914 18.495330 20.419610 -36.413012 -29.192627 -11.973136 -19.352462 -5.768865 19.011976 -4.288501 -2.448895 57.796567 -6.311291 7.535736 -9.559796 25.664315 -8.606773 16.292826 10.790202 -11.138595 
-38.014496 -317.024841 92.169273 -176.695527 4.657244 90.736366 -0.296075 0.201772 27.082672 3.572865 -18.573921 -4.542596 -6.262045 11.703060 -15.354324 nan nan nan 5.369710 4.688282 -27.795111 4.732686 -5.913572 7.880800 0.580663 -9.096613 10.478379 nan nan nan -1.821828 -8.303535 3.169654 6.266083 -3.217039 6.759880 2.186643 -4.036469 -1.769830 2.906773 0.338887 -6.226172 9.587990 -1.211997 -7.880845 -21.921823 -1.368345 -1.912071 -62.456890 -22.592017 18.403692 20.039613 -35.694901 -28.639491 -12.967386 -19.232765 -5.528501 18.808653 -4.396414 -2.596479 58.317331 -5.917697 7.313378 -10.150064 24.857761 -8.132190 17.260349 9.729025 -10.294728 
